<svg height="2094" width="720" xmlns="http://www.w3.org/2000/svg">
<rect height="2094" fill="#555" width="720"></rect>
<text fill="#7f7" font-family="Courier New" font-size="12" xml:space="preserve">
<tspan x="10" y="26">4 megabytes installed</tspan>
<tspan x="10" y="42"></tspan>
<tspan x="10" y="58">node_modules</tspan>
<tspan x="10" y="74">└─┬ del-cli@0.2.1 </tspan>
<tspan x="10" y="90">  ├─┬ del@2.2.2 </tspan>
<tspan x="10" y="106">  │ ├─┬ globby@5.0.0 </tspan>
<tspan x="10" y="122">  │ │ ├─┬ array-union@1.0.2 </tspan>
<tspan x="10" y="138">  │ │ │ └── array-uniq@1.0.3 </tspan>
<tspan x="10" y="154">  │ │ ├── arrify@1.0.1 </tspan>
<tspan x="10" y="170">  │ │ └─┬ glob@7.1.1 </tspan>
<tspan x="10" y="186">  │ │   ├── fs.realpath@1.0.0 </tspan>
<tspan x="10" y="202">  │ │   ├─┬ inflight@1.0.6 </tspan>
<tspan x="10" y="218">  │ │   │ └── wrappy@1.0.2 </tspan>
<tspan x="10" y="234">  │ │   ├── inherits@2.0.3 </tspan>
<tspan x="10" y="250">  │ │   ├─┬ minimatch@3.0.3 </tspan>
<tspan x="10" y="266">  │ │   │ └─┬ brace-expansion@1.1.7 </tspan>
<tspan x="10" y="282">  │ │   │   ├── balanced-match@0.4.2 </tspan>
<tspan x="10" y="298">  │ │   │   └── concat-map@0.0.1 </tspan>
<tspan x="10" y="314">  │ │   ├── once@1.4.0 </tspan>
<tspan x="10" y="330">  │ │   └── path-is-absolute@1.0.1 </tspan>
<tspan x="10" y="346">  │ ├── is-path-cwd@1.0.0 </tspan>
<tspan x="10" y="362">  │ ├─┬ is-path-in-cwd@1.0.0 </tspan>
<tspan x="10" y="378">  │ │ └─┬ is-path-inside@1.0.0 </tspan>
<tspan x="10" y="394">  │ │   └── path-is-inside@1.0.2 </tspan>
<tspan x="10" y="410">  │ ├── object-assign@4.1.1 </tspan>
<tspan x="10" y="426">  │ ├── pify@2.3.0 </tspan>
<tspan x="10" y="442">  │ ├─┬ pinkie-promise@2.0.1 </tspan>
<tspan x="10" y="458">  │ │ └── pinkie@2.0.4 </tspan>
<tspan x="10" y="474">  │ └── rimraf@2.6.1 </tspan>
<tspan x="10" y="490">  ├─┬ meow@3.7.0 </tspan>
<tspan x="10" y="506">  │ ├─┬ camelcase-keys@2.1.0 </tspan>
<tspan x="10" y="522">  │ │ └── camelcase@2.1.1 </tspan>
<tspan x="10" y="538">  │ ├── decamelize@1.2.0 </tspan>
<tspan x="10" y="554">  │ ├─┬ loud-rejection@1.6.0 </tspan>
<tspan x="10" y="570">  │ │ ├─┬ currently-unhandled@0.4.1 </tspan>
<tspan x="10" y="586">  │ │ │ └── array-find-index@1.0.2 </tspan>
<tspan x="10" y="602">  │ │ └── signal-exit@3.0.2 </tspan>
<tspan x="10" y="618">  │ ├── map-obj@1.0.1 </tspan>
<tspan x="10" y="634">  │ ├── minimist@1.2.0 </tspan>
<tspan x="10" y="650">  │ ├─┬ normalize-package-data@2.3.8 </tspan>
<tspan x="10" y="666">  │ │ ├── hosted-git-info@2.4.2 </tspan>
<tspan x="10" y="682">  │ │ ├─┬ is-builtin-module@1.0.0 </tspan>
<tspan x="10" y="698">  │ │ │ └── builtin-modules@1.1.1 </tspan>
<tspan x="10" y="714">  │ │ ├── semver@5.3.0 </tspan>
<tspan x="10" y="730">  │ │ └─┬ validate-npm-package-license@3.0.1 </tspan>
<tspan x="10" y="746">  │ │   ├─┬ spdx-correct@1.0.2 </tspan>
<tspan x="10" y="762">  │ │   │ └── spdx-license-ids@1.2.2 </tspan>
<tspan x="10" y="778">  │ │   └── spdx-expression-parse@1.0.4 </tspan>
<tspan x="10" y="794">  │ ├─┬ read-pkg-up@1.0.1 </tspan>
<tspan x="10" y="810">  │ │ ├─┬ find-up@1.1.2 </tspan>
<tspan x="10" y="826">  │ │ │ └── path-exists@2.1.0 </tspan>
<tspan x="10" y="842">  │ │ └─┬ read-pkg@1.1.0 </tspan>
<tspan x="10" y="858">  │ │   ├─┬ load-json-file@1.1.0 </tspan>
<tspan x="10" y="874">  │ │   │ ├─┬ parse-json@2.2.0 </tspan>
<tspan x="10" y="890">  │ │   │ │ └─┬ error-ex@1.3.1 </tspan>
<tspan x="10" y="906">  │ │   │ │   └── is-arrayish@0.2.1 </tspan>
<tspan x="10" y="922">  │ │   │ └─┬ strip-bom@2.0.0 </tspan>
<tspan x="10" y="938">  │ │   │   └── is-utf8@0.2.1 </tspan>
<tspan x="10" y="954">  │ │   └── path-type@1.1.0 </tspan>
<tspan x="10" y="970">  │ ├─┬ redent@1.0.0 </tspan>
<tspan x="10" y="986">  │ │ ├── indent-string@2.1.0 </tspan>
<tspan x="10" y="1002">  │ │ └─┬ strip-indent@1.0.1 </tspan>
<tspan x="10" y="1018">  │ │   └── get-stdin@4.0.1 </tspan>
<tspan x="10" y="1034">  │ └── trim-newlines@1.0.0 </tspan>
<tspan x="10" y="1050">  └─┬ update-notifier@1.0.3 </tspan>
<tspan x="10" y="1066">    ├─┬ boxen@0.6.0 </tspan>
<tspan x="10" y="1082">    │ ├── ansi-align@1.1.0 </tspan>
<tspan x="10" y="1098">    │ ├── cli-boxes@1.0.0 </tspan>
<tspan x="10" y="1114">    │ ├── filled-array@1.1.0 </tspan>
<tspan x="10" y="1130">    │ ├─┬ repeating@2.0.1 </tspan>
<tspan x="10" y="1146">    │ │ └─┬ is-finite@1.0.2 </tspan>
<tspan x="10" y="1162">    │ │   └── number-is-nan@1.0.1 </tspan>
<tspan x="10" y="1178">    │ ├─┬ string-width@1.0.2 </tspan>
<tspan x="10" y="1194">    │ │ ├── code-point-at@1.1.0 </tspan>
<tspan x="10" y="1210">    │ │ └── is-fullwidth-code-point@1.0.0 </tspan>
<tspan x="10" y="1226">    │ └── widest-line@1.0.0 </tspan>
<tspan x="10" y="1242">    ├─┬ chalk@1.1.3 </tspan>
<tspan x="10" y="1258">    │ ├── ansi-styles@2.2.1 </tspan>
<tspan x="10" y="1274">    │ ├── escape-string-regexp@1.0.5 </tspan>
<tspan x="10" y="1290">    │ ├─┬ has-ansi@2.0.0 </tspan>
<tspan x="10" y="1306">    │ │ └── ansi-regex@2.1.1 </tspan>
<tspan x="10" y="1322">    │ ├── strip-ansi@3.0.1 </tspan>
<tspan x="10" y="1338">    │ └── supports-color@2.0.0 </tspan>
<tspan x="10" y="1354">    ├─┬ configstore@2.1.0 </tspan>
<tspan x="10" y="1370">    │ ├─┬ dot-prop@3.0.0 </tspan>
<tspan x="10" y="1386">    │ │ └── is-obj@1.0.1 </tspan>
<tspan x="10" y="1402">    │ ├── graceful-fs@4.1.11 </tspan>
<tspan x="10" y="1418">    │ ├─┬ mkdirp@0.5.1 </tspan>
<tspan x="10" y="1434">    │ │ └── minimist@0.0.8 </tspan>
<tspan x="10" y="1450">    │ ├── os-tmpdir@1.0.2 </tspan>
<tspan x="10" y="1466">    │ ├── osenv@0.1.4 </tspan>
<tspan x="10" y="1482">    │ ├── uuid@2.0.3 </tspan>
<tspan x="10" y="1498">    │ └─┬ write-file-atomic@1.3.3 </tspan>
<tspan x="10" y="1514">    │   ├── imurmurhash@0.1.4 </tspan>
<tspan x="10" y="1530">    │   └── slide@1.1.6 </tspan>
<tspan x="10" y="1546">    ├── is-npm@1.0.0 </tspan>
<tspan x="10" y="1562">    ├─┬ latest-version@2.0.0 </tspan>
<tspan x="10" y="1578">    │ └─┬ package-json@2.4.0 </tspan>
<tspan x="10" y="1594">    │   ├─┬ got@5.7.1 </tspan>
<tspan x="10" y="1610">    │   │ ├─┬ create-error-class@3.0.2 </tspan>
<tspan x="10" y="1626">    │   │ │ └── capture-stack-trace@1.0.0 </tspan>
<tspan x="10" y="1642">    │   │ ├── duplexer2@0.1.4 </tspan>
<tspan x="10" y="1658">    │   │ ├── is-redirect@1.0.0 </tspan>
<tspan x="10" y="1674">    │   │ ├── is-retry-allowed@1.1.0 </tspan>
<tspan x="10" y="1690">    │   │ ├── is-stream@1.1.0 </tspan>
<tspan x="10" y="1706">    │   │ ├── lowercase-keys@1.0.0 </tspan>
<tspan x="10" y="1722">    │   │ ├── node-status-codes@1.0.0 </tspan>
<tspan x="10" y="1738">    │   │ ├── read-all-stream@3.1.0 </tspan>
<tspan x="10" y="1754">    │   │ ├─┬ readable-stream@2.2.9 </tspan>
<tspan x="10" y="1770">    │   │ │ ├── buffer-shims@1.0.0 </tspan>
<tspan x="10" y="1786">    │   │ │ ├── core-util-is@1.0.2 </tspan>
<tspan x="10" y="1802">    │   │ │ ├── isarray@1.0.0 </tspan>
<tspan x="10" y="1818">    │   │ │ ├── process-nextick-args@1.0.7 </tspan>
<tspan x="10" y="1834">    │   │ │ ├── string_decoder@1.0.0 </tspan>
<tspan x="10" y="1850">    │   │ │ └── util-deprecate@1.0.2 </tspan>
<tspan x="10" y="1866">    │   │ ├── timed-out@3.1.3 </tspan>
<tspan x="10" y="1882">    │   │ ├── unzip-response@1.0.2 </tspan>
<tspan x="10" y="1898">    │   │ └─┬ url-parse-lax@1.0.0 </tspan>
<tspan x="10" y="1914">    │   │   └── prepend-http@1.0.4 </tspan>
<tspan x="10" y="1930">    │   ├─┬ registry-auth-token@3.2.0 </tspan>
<tspan x="10" y="1946">    │   │ └─┬ rc@1.2.1 </tspan>
<tspan x="10" y="1962">    │   │   ├── deep-extend@0.4.1 </tspan>
<tspan x="10" y="1978">    │   │   ├── ini@1.3.4 </tspan>
<tspan x="10" y="1994">    │   │   └── strip-json-comments@2.0.1 </tspan>
<tspan x="10" y="2010">    │   └── registry-url@3.1.0 </tspan>
<tspan x="10" y="2026">    ├── lazy-req@1.1.0 </tspan>
<tspan x="10" y="2042">    ├── semver-diff@2.1.0 </tspan>
<tspan x="10" y="2058">    └─┬ xdg-basedir@2.0.0 </tspan>
<tspan x="10" y="2074">      └── os-homedir@1.0.2</tspan>
</text>
</svg>
